# xmcd
#
# Track frame offsets:
#	150
#	13719
#	26216
#	39767
#	50585
#	60938
#	73722
#	85550
#	96957
#	109180
#	120933
#	134965
#	147434
#	160929
#	171513
#	183869
#	195997
#	207076
#	219308
#	232405
#	242253
#	254521
#	266880
#	278550
#	288294
#	301558
#	312865
#	325396
#	338178
#
# Disc length: 4664 seconds
#
# Revision: 1
# Processed by: cddbd v1.5.1PL0 Copyright (c) Steve Scherf et al.
# Submitted via: audiograbber 1.83.01
#
DISCID=a312361d
DTITLE=Various Artist - Ham Hocks And Cornbread Disc 1
DYEAR=2005
DGENRE=Blues
TTITLE0=Little Willie Littlefield - Happy Pay Day
TTITLE1=Johnny Otis - Barrelhouse Stomp
TTITLE2=Rabon Tarrant - Blues With A Feeling
TTITLE3=Goree Carter - I'm Your Boogie Man
TTITLE4=Big Bob Dougherty - Big Bob's Boogie
TTITLE5=Gatemouth Moore - Did You Ever Love A Woman
TTITLE6=Jimmy Smith - Cheatin' Woman
TTITLE7=Andrew Tibbs - Drinking Ink Splink
TTITLE8=David Van Dyke - Dyke Takes  A Hike
TTITLE9=Roscoe Gordon - T-Model Boogie
TTITLE10=Walter Brown - Stop Light
TTITLE11=Billie McAllister - I Go For That
TTITLE12=Frank Culley - Floorshow
TTITLE13=Jack Cooley - Dyna-Flow
TTITLE14=Sherman Williams - I'm Lucky With My Brown Gal
TTITLE15=Clifford Bivens - Achin' Heart Boogie
TTITLE16=Joe Lutcher - Rockin' Boogie
TTITLE17=Wynonie Harris - She's Gone With The Wind
TTITLE18=Wild Bill Moore - Swingin' For Pappy
TTITLE19=Marvin Phillips - Wine Woogie
TTITLE20=Jimmy McCracklin - What's Your Phone Number
TTITLE21=Bull Moose Jackson - Moose On The Loose
TTITLE22=Big Jay McNeely - Insect Ball
TTITLE23=Big Jim Wynn - Blow Wynn Blow
TTITLE24=Tommy Brown - V-8 Baby
TTITLE25=Red Prysock - The Hammer
TTITLE26=Floyd Dixon - That'll Get It
TTITLE27=Joe Morris - Weasel Walk
TTITLE28=Carl Campbell - Ooh Wee Baby
EXTD=
EXTT0=
EXTT1=
EXTT2=
EXTT3=
EXTT4=
EXTT5=
EXTT6=
EXTT7=
EXTT8=
EXTT9=
EXTT10=
EXTT11=
EXTT12=
EXTT13=
EXTT14=
EXTT15=
EXTT16=
EXTT17=
EXTT18=
EXTT19=
EXTT20=
EXTT21=
EXTT22=
EXTT23=
EXTT24=
EXTT25=
EXTT26=
EXTT27=
EXTT28=
PLAYORDER=
